/* XPM */
static char *c15ec3e429974e59c9fd9db45162ad52nMgI8srl0oVewnHE[] = {
/* columns rows colors chars-per-pixel */
"64 64 209 2 ",
"   c #04020E",
".  c #0C020A",
"X  c #15080E",
"o  c #020213",
"O  c #0A0714",
"+  c #04061C",
"@  c #0C051A",
"#  c #050C1D",
"$  c #0D0C1E",
"%  c #160915",
"&  c #120D1C",
"*  c #1A0E1A",
"=  c #0C1416",
"-  c #05151D",
";  c #0B121D",
":  c #12121B",
">  c #1C141C",
",  c #29090E",
"<  c #2D100D",
"1  c #260E18",
"2  c #040A21",
"3  c #0C0E23",
"4  c #070E29",
"5  c #130E23",
"6  c #061522",
"7  c #0B1320",
"8  c #0B132A",
"9  c #071929",
"0  c #111322",
"q  c #1B1124",
"w  c #141A2D",
"e  c #1B1B2C",
"r  c #0D1933",
"t  c #0F1A38",
"y  c #131B32",
"u  c #191A38",
"i  c #261728",
"p  c #261834",
"a  c #03253A",
"s  c #0A283D",
"d  c #1D2135",
"f  c #14213A",
"g  c #1D243A",
"h  c #29242C",
"j  c #25273A",
"k  c #2B2B3C",
"l  c #302F3F",
"z  c #32323E",
"x  c #470F19",
"c  c #451B26",
"v  c #5D1E22",
"b  c #601E30",
"n  c #54222D",
"m  c #5A2729",
"M  c #542F39",
"N  c #632533",
"B  c #682B3D",
"V  c #77283B",
"C  c #121A42",
"Z  c #3A1744",
"A  c #152942",
"S  c #1A2847",
"D  c #0D304E",
"F  c #063D57",
"G  c #1C385A",
"H  c #242E4B",
"J  c #2D3047",
"K  c #353644",
"L  c #333C4D",
"P  c #223554",
"I  c #2A3A57",
"U  c #333B53",
"Y  c #3C3E54",
"T  c #113E6B",
"R  c #273E63",
"E  c #353E67",
"W  c #473745",
"Q  c #543E4B",
"!  c #7D2E42",
"~  c #633143",
"^  c #7D3544",
"/  c #653F54",
"(  c #074459",
")  c #27465E",
"_  c #394459",
"`  c #1D4A74",
"'  c #015B70",
"]  c #294567",
"[  c #384967",
"{  c #3C4A64",
"}  c #3D516F",
"|  c #384E75",
" . c #325075",
".. c #066877",
"X. c #17707B",
"o. c #5B4348",
"O. c #464657",
"+. c #554655",
"@. c #54555F",
"#. c #785451",
"$. c #434D65",
"%. c #484D65",
"&. c #4E4E64",
"*. c #555B62",
"=. c #565768",
"-. c #495778",
";. c #5A5E73",
":. c #5C6366",
">. c #61696E",
",. c #77646E",
"<. c #686B75",
"1. c #73777A",
"2. c #972934",
"3. c #972B36",
"4. c #8F2C41",
"5. c #8A3448",
"6. c #B33747",
"7. c #BC3548",
"8. c #AF3751",
"9. c #C63D53",
"0. c #C93C52",
"q. c #FF3E52",
"w. c #FF3E5B",
"e. c #8C5747",
"r. c #834552",
"t. c #8E5255",
"y. c #90625E",
"u. c #B84264",
"i. c #967770",
"p. c #AB776E",
"a. c #D74659",
"s. c #FD454E",
"d. c #EF495C",
"f. c #F64757",
"g. c #FE4555",
"h. c #F44857",
"j. c #FC4955",
"k. c #F54659",
"l. c #FE455A",
"z. c #F24A5C",
"x. c #FF4C5D",
"c. c #CF4360",
"v. c #C65E66",
"b. c #E64D61",
"n. c #EA4A61",
"m. c #FB4663",
"M. c #FA5164",
"N. c #F95966",
"B. c #F95A69",
"V. c #F95B7C",
"C. c #C6867E",
"Z. c #1B5F89",
"A. c #235081",
"S. c #076781",
"D. c #387B8A",
"F. c #0861A2",
"G. c #207EAA",
"H. c #54678A",
"J. c #47738C",
"K. c #546897",
"L. c #7A7E81",
"P. c #70778D",
"I. c #5E79A5",
"U. c #6D7EC2",
"Y. c #807D86",
"T. c #D07C9A",
"R. c #3F83A0",
"E. c #1CAFBC",
"W. c #798094",
"Q. c #7986B1",
"!. c #58ADB5",
"~. c #26AAD5",
"^. c #47B4C4",
"/. c #65B8C2",
"(. c #7DBAD7",
"). c #46E0F4",
"_. c #888589",
"`. c #898D99",
"'. c #8D9296",
"]. c #8B919E",
"[. c #A98C87",
"{. c #899AA2",
"}. c #9498A5",
"|. c #9DA2AB",
" X c #94B2BF",
".X c #A2ABAF",
"XX c #CD9C89",
"oX c #D29889",
"OX c #D08F92",
"+X c #CEB0A2",
"@X c #CDB3B1",
"#X c #EABFAA",
"$X c #E5C9B8",
"%X c #8E92C0",
"&X c #BEBBC6",
"*X c #9CA2E8",
"=X c #85C0D5",
"-X c #CFCDD5",
";X c #CAD3D9",
":X c #E5DDD5",
">X c #DFE1DB",
",X c #C9D7E9",
"<X c #CED8E8",
"1X c #D7E5EE",
"2X c #DDEBF2",
"3X c #F2E4E6",
"4X c #E9F6FA",
"5X c #F8F4F6",
"6X c #FEFDFE",
/* pixels */
"l.g.g.g.s.g.s.g.g.j.l.g.g.l.g.g.l.g.g.g.l.l.g.g.l.x.x.l.j.g.l.g.g.j.j.j.g.j.g.m.l.g.g.g.g.l.s.g.s.g.l.g.g.g.g.g.l.s.s.g.g.g.g.x.",
"g.0 3 3 3 0 0 3 7 0 5 0 3 5 ; $ : 0 7 3 3 5 5 0 3 6 7 7 3 7 6 ; ; 6 ; 6 6 ; 6 7 0 0 7 3 3 3 3 0 7 5 7 7 0 0 3 5 3 3 3 0 3 3 - x.",
"g.7 ; 7 7 7 7 7 7 7 7 7 7 7 7 7 7 7 7 7 ; 7 7 7 7 7 7 7 7 7 7 7 7 7 7 7 7 7 7 7 7 7 7 7 ; 7 7 7 7 7 7 7 7 7 7 7 ; 7 7 7 7 7 : x.",
"j.7 7 7 7 7 7 7 7 7 7 7 7 7 7 7 6 7 7 7 ; 6 ; 7 7 7 7 7 7 7 7 7 7 7 7 7 7 7 7 7 7 7 ; 7 7 7 7 7 7 7 7 7 7 7 7 ; 7 7 7 7 7 7 ; x.",
"j.7 7 7 7 7 7 7 7 7 7 7 7 7 7 7 7 7 7 7 7 7 6 ; 7 7 4X; 7 7 7 7 7 7 7 ; 7 7 7 7 7 7 7 7 7 6 7 7 7 7 7 7 7 7 7 6 7 7 7 7 7 7 : x.",
"j.7 7 7 ; 5 7 7 7 7 7 7 7 7 ; 6 7 7 7 7 7 7 7 7 ; 7 # 2X; 7 7 ; 7 7 7 7 7 7 7 7 7 7 7 7 7 : 7 7 7 7 7 7 7 7 7 7 7 7 7 7 7 7 ; x.",
"g.7 7 7 6 2.; 7 7 7 7 7 7 7 7 7 7 7 n ; ; 7 7 7 2.7 1X<X4X- ; ; 7 7 7 7 6 ; 2.- 7 7 7 7 7 4.7 7 7 7 7 7 7 7 7 7 7 7 7 2.7 7 : x.",
"j.7 7 7 - 0 ; 7 ; 7 7 7 ; 7 7 7 7 7 7 0 7 7 7 7 - 7 1X<XR 4X2X>X8 7 7 7 7 2 6 - 7 7 7 7 7 q 7 7 7 7 7 7 7 7 7 7 7 7 7 7 7 7 ; x.",
"j.7 7 7 7 7 7 7 7 7 7 7 7 7 7 7 7 ; 7 7 7 7 7 7 7 6 U.Q.<X1X;X:.7 7 7 7 7 7 7 7 7 7 7 7 7 7 7 7 7 7 7 7 7 7 7 7 7 7 7 7 7 7 ; x.",
"j.7 7 7 7 7 7 7 7 7 7 7 7 7 7 7 7 7 7 7 7 7 7 7 7 ; %.*X%Xy.p.p.X 7 7 ; 7 7 7 7 7 7 7 7 7 7 7 7 ; 7 7 7 6 7 7 7 7 7 7 7 7 7 ; x.",
"j.7 7 7 7 7 7 ; 7 7 7 7 7 7 7 ; 7 7 7 ; 7 7 7 7 7 7 ; F A.XX:Xe.5X7 7 7 7 7 7 7 7 7 7 7 7 7 7 7 6 7 7 7 ; 7 7 ; 7 7 7 7 7 7 : x.",
"j.7 7 7 7 7 7 7 7 7 7 7 7 7 7 7 7 7 7 0 7 7 7 7 5 7 6 ' 4 I.+Xp.}.7 7 7 7 7 7 7 7 7 e 7 ; e 7 7 7 7 7 7 7 0 7 7 7 7 7 7 7 7 & x.",
"j.7 7 7 7 7 7 7 7 7 7 7 7 7 7 7 7 7 7 7 7 7 7 7 7 7 7 S.F K.-X,..X7 7 7 7 7 9 6 7 7 ; 7 7 7 7 7 7 7 7 7 7 7 7 7 7 7 7 7 7 7 : x.",
"j.7 7 7 7 ; 7 7 ; 7 7 7 7 7 7 7 7 7 7 7 7 7 7 7 7 7 0 (  .[ A.3X: 7 7 7 7 7 4X7 7 7 7 7 7 7 7 7 7 ; 7 7 ; ; 7 7 7 7 7 7 7 7 ; x.",
"j.7 7 7 7 6 7 0 7 7 7 7 7 7 7 7 7 7 7 7 7 7 ; 7 0 7 I f H @.&X@X& 7 7 7 7 7 |.7 7 ; 6 7 7 7 7 7 7 7 7 7 7 8 7 7 : 7 7 7 7 7 : x.",
"j.7 7 7 7 7 7 7 7 7 7 ; 6 7 7 7 ; 6 7 7 7 7 7 7 7 6 f f 3  X_.l f 6 7 7 7 6 *.; 7 7 7 7 7 7 7 7 7 7 7 7 7 7 7 7 7 7 ; 7 7 7 ; x.",
"g.6 7 7 7 7 7 ; 7 7 7 7 7 7 7 7 7 7 7 7 7 7 7 7 6 ; 7 j J.P.i $X7 ; 7 7 7 7 d = ; 6 7 7 ; 8 7 6 7 7 7 7 7 7 7 7 7 7 7 7 - 7 : x.",
"j.7 7 7 0 7 ; 8 7 7 0 7 7 7 7 7 7 7 7 7 7 7 7 7 ; ; 6 -./.) p.oX7 7 7 7 7 6 E.- 7 7 7 7 ; 6 7 ; 7 7 7 7 7 7 7 7 7 7 7 7 7 7 ; x.",
"j.7 7 7 7 7 ; 7 7 7 7 7 7 7 7 7 7 7 7 7 7 7 7 7 6 7 f ;.,XD.o.C.0 7 7 7 7 ; _.h 7 7 7 7 ; 7 7 7 7 7 7 7 7 7 7 7 7 7 7 7 7 7 : x.",
"g.7 7 7 7 7 7 7 7 7 7 7 6 ; 7 7 7 ; 7 7 7 7 7 7 ; = L ( 1X..+XC.6X7 7 7 - >.z W.L.1.7 7 7 7 7 7 7 ; 7 7 7 7 7 - 7 7 7 7 7 7 ; x.",
"g.7 7 7 7 7 7 6 7 7 8 ; ; 7 7 7 7 7 7 7 7 7 7 7 7 7 F D %.] a +X3X- 7 7 <._.>.*.*.*.0 7 7 7 7 - 7 7 7 7 7 7 7 7 7 7 7 7 7 7 : x.",
"j.7 7 7 7 7 ; 6 7 7 ; ; 7 7 7 6 7 7 7 7 ; 7 7 7 ; : O.a s ..( XX=X).0 7 '.>.0 ; ; *.; 7 7 7 7 7 7 7 7 7 7 7 7 7 7 7 7 7 7 7 ; x.",
"j.7 7 7 7 7 7 7 7 7 7 7 7 7 7 ; 7 7 7 7 7 7 7 7 ; 9 M M ....F oX=X; 7 7 1.6 6 O.7 7 7 7 7 7 7 7 7 7 7 7 7 7 7 7 ; 7 7 7 7 7 : x.",
"g.7 7 7 7 7 7 7 7 7 7 7 7 7 7 7 7 7 7 7 7 7 ; 6 ; 9 y.i.^.!./.XXr 7 7 7 : ; *.7 7 ; ; 7 7 7 7 7 7 7 7 7 7 7 7 7 7 7 7 7 7 7 ; x.",
"j.7 7 7 7 7 7 ; 7 7 7 7 7 7 7 7 7 7 7 7 7 ; 7 7 7 7 #.y.F.    p.#X% 6 ; 6X; M 6 7 7 7 7 7 7 7 7 ; 6 7 7 7 7 7 7 7 7 7 7 7 7 ; x.",
"g.7 7 7 7 7 7 7 7 7 7 7 7 7 7 7 7 ; 7 7 7 7 7 7 7 7 o.o.' 3 a t.[.,X6X-X  H - :.7 7 7 7 7 7 7 7 7 7 7 7 7 7 7 ; 7 7 7 7 7 7 : x.",
"j.7 7 7 7 7 7 7 7 7 7 7 7 7 7 7 7 7 7 7 6 7 7 7 # 7 o.; ;     + G.~.(.t O 7 K 6 7 7 7 ; 6 ; 7 ; 7 7 7 7 7 7 7 7 7 7 7 7 7 7 7 x.",
"j.7 7 7 # ! 5.~ 7 ; 6 g.7 ; 3 g.x 7 j.n.; g.7 7 +.5.g.+.g.. o K 5Xl.M.u.7 h.h.7 7 7 g.b.; ! a.q.g.g.j.g.< 7 7 7 7 7 7 7 7 7 7 N.",
"j.7 7 7 7 7 7 7 7 7 2.f.7 7 ; s.7 7 g.n.7 g.7 7 2.g.l.h r.S L 8.+ g.q.g.7 d.g.= 7 7 g.g.- ; 6.h.s.g.g.s.g.; 7 7 7 7 7 7 7 7 7 V.",
"g.7 7 7 7 7 7 ; 7 7 d g.7 7 g.b.7 l.l.n.7 g.7 7 & g.e.e o r.L l.u ; : w.7 d.g.l.5 0 g.g., ; 6.z.; 7 g.; 7 7 7 7 p 7 7 7 7 7 7 B.",
"j.7 7 7 7 7 7 7 7 7 7 g.7 $ g.6 7 l.z.n.7 g.7 7 7 g.t.X.w Q } t.M + g.8.; d.9.g.- ; g.v g.7 6.f.7 7 g.7 7 7 7 7 ; ; 7 7 7 7 7 B.",
"j.7 7 7 7 7 7 7 7 7 ; g.7 g.g.; j.j.z.n.7 g.7 7 k.a.*.s ` v.%.T.i.k g.7 7 d.9.g.f.; g.; g.7 6.k.7 7 g.7 7 7 7 - 7 7 7 7 7 7 ; N.",
"j.7 7 7 7 7 7 7 7 7 7 g.0 g.6 6 j.l.d.d.7 g.7 7 k.c.O.y J r.,.&.9 ~ w.7 7 d.9.g.g.3 f.; w.g.6.f.7 7 g.7 ; 7 7 7 7 7 7 7 7 7 7 B.",
"j.; 7 7 6 7 7 7 7 7 7 g.w.j.7 7.g.g.n.n.7 g.7 7 5 l.h 2 -Xw.5 P p e l.7 7 z.0.g.w.V 7 ; 3 g.8.h.7 7 g.7 ; 0 7 7 7 7 6 : 7 7 7 N.",
"j.7 7 7 5 7 7 7 7 7 7 g.g.^ ; g.* s.g.n.7 g.; ; 4.g.% |.}.C 4 +.J + Z < ; d.q.s.$ g.7 7 ; g.g.h.7 7 g.7 7 1 7 7 7 7 7 5.7 7 7 N.",
"j.7 7 7 7 7 7 7 7 7 ; g.g.6 = l.- ; g.n.7 g.g.g.7 g.g.OX/ C 3 +.W u 5 g.7 d.g.; 7 l.q 7 7 9 g.h.7 7 g.7 7 ; 6 7 7 7 7 7 7 7 7 B.",
"j.7 7 7 ; 7 7 ; 7 7 ; g.= ; g.u.; 7 g.n.7 g.g.q.- {.g.D 4 j 8 +.z f i g.7 z.q.7 7 a.g.7 7 7 g.h.7 7 g.7 7 7 7 7 7 7 7 7 7 7 ; B.",
"g.7 7 7 6 7 7 6 7 7 7 7 7 7 7 7 6 ; 6 6 7 7 7 0 L }.&X2 2 @ 3 R { G 6X- 6 : 8 7 ; 6 7 7 ; 6 = 6 7 7 7 ; 7 7 7 7 7 7 7 7 7 7 6 B.",
"g.7 7 7 7 7 7 7 7 7 7 7 7 6 7 7 7 7 ; 7 7 7 ; ; `.`.3 + + + + 3 %.{ e.; 7 7 ; 7 7 7 7 7 7 7 7 7 7 7 7 7 7 7 7 7 7 7 7 7 7 7 7 B.",
"l.7 7 7 7 7 7 7 7 7 7 7 7 7 7 7 7 7 ; 0 7 7 7 3 ].P.7 + + & 7 o { $.H.7 7 7 6 ; 7 7 7 7 7 7 7 7 7 7 7 7 7 7 7 7 7 7 7 ; 7 7 7 B.",
"x.; ! 7 7 7 7 7 7 7 7 6 ; % 7 7 1 3 7 7 7 7 7 7 ].k y + r + 7 2 Y [ U 7 B 7 7 7 7 7 ; ; 7 7 7 7 7 7 7 7 7 > : 7 7 6 7 7 7 7 7 B.",
"x.- 1 ; 7 7 7 7 7 7 7 7 : = 7 7 i ; 7 7 7 7 7 ; ].; X + r @ 3 + $ [ [ 7 % 7 7 7 7 7 6 7 7 7 7 7 7 7 ; 7 7 - ; 7 7 6 7 7 7 7 7 B.",
"x.- 5.0 7 8 6 6 7 7 7 7 7 7 6 7 V 7 7 7 7 7 7 7 ;.; . 2 A @ ; 6 q } U 3 N 7 7 7 7 7 * 7 7 8 8 7 7 7 7 7 7 6 7 7 k 7 7 7 7 7 7 B.",
"x.6 i : 7 7 7 7 7 7 7 7 7 7 7 7 ; ; 7 7 7 7 7 7 ;.7 - 9 u j w ; + z _ ; m 7 7 7 7 7 & 7 7 7 7 7 7 7 7 7 7 ; 7 7 $ ; 7 7 7 ; 6 B.",
"x.9 6 7 7 7 7 7 7 7 7 7 ; 7 7 7 7 7 7 7 7 7 7 7 P.0 7 P I q 6 6 + _ ] 7 0 7 7 7 7 7 - 7 7 7 7 7 7 7 7 7 7 7 7 7 7 7 7 7 7 7 ; N.",
"x.6 7 7 7 7 ; 3 7 7 7 7 7 7 7 7 7 7 7 7 7 7 7 7 3 <.7 I G X J 7 + A -.9 7 7 7 7 7 ; 7 7 ; e ; 6 7 7 7 7 7 0 7 7 7 7 7 7 7 7 7 B.",
"x.6 ; 7 7 7 7 7 7 7 7 7 7 7 7 7 7 7 7 7 7 7 7 7 7 7 5 G S =.;.7 6 ) E g 7 7 7 7 7 7 7 7 6 7 7 7 7 7 7 7 7 7 7 7 7 7 7 7 7 7 7 B.",
"x.7 7 7 7 7 7 7 7 7 7 7 7 7 7 7 7 7 7 ; 7 7 7 7 0 7 .._ R O ;.7 7 8 | 7 7 7 7 7 7 7 7 7 ; 7 7 7 6 7 7 7 7 7 ; 7 7 7 7 7 7 ; 0 N.",
"x.- 7 7 7 ; 7 0 7 7 7 7 7 7 7 7 7 7 7 7 7 7 7 7 $ 7 R.} [ X &.7 6 u [ H 7 7 7 7 7 ; 7 7 7 7 7 6 ; 7 7 7 7 0 7 7 : 7 7 7 7 7 7 B.",
"x.6 7 7 7 7 7 7 7 7 7 7 7 7 7 7 7 7 7 7 7 7 7 7 7 7 _ j T X q 7 7 I | t 7 7 7 7 7 7 7 7 7 ; 7 7 7 7 7 7 7 7 7 7 7 6 7 7 7 7 7 B.",
"x.- 7 7 7 7 7 7 7 7 7 7 7 7 7 7 ; 7 7 7 7 7 7 7 7 7 L u H - 7 7 7 ] A y 7 7 ; 6 7 7 ; 7 7 7 7 7 7 7 7 ; 7 7 7 7 7 7 7 0 7 7 7 B.",
"x.; 7 7 7 7 7 7 7 7 7 7 7 > 7 7 6 7 7 7 7 7 7 7 = 7 g g 6 t L 7 ; y t 4 ; 7 ; 7 7 7 6 7 7 7 ; 7 7 7 7 7 7 - 7 7 : 7 7 ; 7 7 7 x.",
"x.6 7 7 7 ; 7 7 7 7 7 7 7 7 7 7 7 7 7 7 ; 7 7 7 7 7 3 y # 0 H.7 7 ( t $ ; 7 7 7 7 7 7 7 7 7 7 7 7 7 7 7 7 7 7 7 7 7 7 7 7 7 7 x.",
"x.; 7 7 7 7 7 7 7 7 7 7 7 7 7 7 0 7 7 7 7 7 7 7 7 7 3 r ; : K.7 7 S.H r 7 7 7 7 7 7 ; 7 7 7 7 7 7 7 7 7 ; 7 7 7 7 7 7 6 7 7 ; x.",
"x.6 6 7 7 7 7 7 6 ; 7 7 7 7 7 7 5 7 7 7 7 7 7 7 - 7 A d 7 7 =.7 ; ; + j 7 7 5 7 7 7 7 7 7 7 7 7 7 7 7 7 7 7 7 7 6 6 7 7 7 7 7 x.",
"x.; ; 7 7 7 7 7 7 7 7 7 ; 7 7 7 7 7 7 7 7 7 7 7 7 7 6 e 7 7 =.; 7 6 A d 7 7 7 7 7 7 7 7 7 7 7 7 7 7 7 7 7 7 7 7 7 ; 7 7 7 7 7 x.",
"x.; ; 6 7 7 7 0 7 7 ; 6 7 7 7 ; ; 7 7 7 7 7 7 7 7 7 ; j ; 6 Y.7 7 ; 7 O 3 7 7 7 7 7 7 7 7 ; 7 7 ; 7 7 7 7 0 7 7 7 7 7 7 7 7 7 x.",
"x.; 7 7 7 7 7 7 7 7 7 7 7 7 7 7 7 7 7 7 7 7 7 7 7 ; - j 7 ; +.7 7 7 ; y ; 7 ; 7 7 7 7 7 7 7 7 7 7 7 7 7 7 7 7 7 7 7 7 7 7 7 7 x.",
"x.7 7 7 7 7 7 7 7 7 7 7 7 7 7 7 7 7 7 7 7 7 7 7 7 7 ; O.7 7 & 7 7 7 7 %.; 7 7 7 ; 7 7 7 7 7 7 7 7 7 7 7 7 7 7 7 7 7 7 7 7 7 7 x.",
"x.- 7 7 7 7 7 ; 7 7 0 ; 7 7 7 7 7 7 7 ; 7 7 7 7 7 7 ; Y + 7 7 7 7 7 7 o w 7 7 7 7 7 7 7 7 7 7 7 7 7 7 7 7 7 7 7 ; 7 7 7 7 7 ; x.",
"x.- 7 7 7 7 7 6 7 7 7 7 7 7 7 7 7 7 7 7 7 7 7 7 7 7 7 Z.P 7 7 7 7 ; 8 I %.# ; 7 ; 7 7 7 7 7 7 7 7 7 7 7 7 7 7 7 0 7 7 7 7 7 7 x.",
"x.c 7 7 7 7 7 7 7 7 7 7 7 n n n 0 7 7 7 7 7 7 7 7 7 3 t ` 7 7 7 7 b N 2 ] w 7 7 N N 7 7 7 7 7 7 7 7 7 7 6 & n n ; 7 7 7 7 7 7 x.",
"x.; 7 7 7 7 7 7 7 7 7 7 ; i 7 7 7 7 ; 6 7 7 6 ; i 7 7 H ] 2 6 7 7 7 7 H 3 P 7 7 7 7 7 7 7 7 7 7 7 7 7 7 7 % 7 $ ; ; 7 i 7 7 7 x.",
"x.x.l.j.j.x.l.j.l.j.j.l.l.j.l.l.j.l.g.j.l.l.l.g.l.l.l.w.m.x.l.l.l.f.l.w.g.l.g.l.j.l.j.j.l.l.x.l.l.j.l.j.j.l.g.l.x.x.x.n.x.x.x.x."
};
