/* XPM */
static char *_a361b0964e54e09f8949b4981ff1df8LhbIPdjJnUoYvLQ5[] = {
/* columns rows colors chars-per-pixel */
"64 64 224 2 ",
"   c None",
".  c #1B1B2C",
"X  c #131628",
"o  c #1C1C33",
"O  c #1F2134",
"+  c #23253B",
"@  c #242638",
"#  c #343634",
"$  c #1B1C47",
"%  c #191C57",
"&  c #272946",
"*  c #292A44",
"=  c #292A4A",
"-  c #242547",
";  c #363B4D",
":  c #343857",
">  c #272D5E",
",  c #1C1B6B",
"<  c #1F2364",
"1  c #222568",
"2  c #212371",
"3  c #34386D",
"4  c #39454C",
"5  c #3B4B54",
"6  c #38475B",
"7  c #3C525C",
"8  c #2F4459",
"9  c #354763",
"0  c #3D5362",
"q  c #39467B",
"w  c #4C4E4D",
"e  c #444748",
"r  c #49514F",
"t  c #424C56",
"y  c #4C5456",
"u  c #42555D",
"i  c #4D5B5B",
"p  c #43555A",
"a  c #535353",
"s  c #5A5B5B",
"d  c #54595B",
"f  c #5B625F",
"g  c #434769",
"h  c #475863",
"j  c #545B62",
"k  c #474975",
"l  c #525576",
"z  c #55597A",
"x  c #4E5279",
"c  c #645C6A",
"v  c #596166",
"b  c #4E626A",
"n  c #676765",
"m  c #63677B",
"M  c #677070",
"N  c #747979",
"B  c #716769",
"V  c #8D7D7D",
"C  c #91847B",
"Z  c #343B92",
"A  c #333A9B",
"S  c #333899",
"D  c #2D3382",
"F  c #353BA2",
"G  c #3C429B",
"H  c #3B5285",
"J  c #2F7196",
"K  c #3C43A7",
"L  c #3D46BB",
"P  c #464A8E",
"I  c #495589",
"U  c #5A5C88",
"Y  c #42459B",
"T  c #46499E",
"R  c #474B99",
"E  c #4E5391",
"W  c #4F549C",
"Q  c #555A95",
"!  c #5C5C9B",
"~  c #555798",
"^  c #605F9D",
"/  c #446285",
"(  c #5D648C",
")  c #5F639C",
"_  c #636489",
"`  c #666998",
"'  c #6A7399",
"]  c #717A8E",
"[  c #4446A2",
"{  c #4549A3",
"}  c #494BA9",
"|  c #5A5CA7",
" . c #494AB7",
".. c #5A55B9",
"X. c #4D4EAA",
"o. c #5D61A6",
"O. c #5C63BB",
"+. c #6668AC",
"@. c #6C75A5",
"#. c #7B7CA3",
"$. c #6A6CB4",
"%. c #666AB8",
"&. c #6D71BD",
"*. c #7475BD",
"=. c #787ABA",
"-. c #3F3AC9",
";. c #483EC6",
":. c #3E42D1",
">. c #4C53C8",
",. c #5153C4",
"<. c #5B5ECB",
"1. c #5358CA",
"2. c #4546DA",
"3. c #4956D6",
"4. c #555BD4",
"5. c #5A5ED4",
"6. c #5459D7",
"7. c #5B62C8",
"8. c #5963D3",
"9. c #5A7CD6",
"0. c #6769C7",
"q. c #6E72C8",
"w. c #7274C3",
"e. c #7275CD",
"r. c #7B7CCD",
"t. c #777AC5",
"y. c #6264D2",
"u. c #6B6DD5",
"i. c #6B6CDA",
"p. c #676BD5",
"a. c #6F74D9",
"s. c #7376D4",
"d. c #7779D7",
"f. c #4244E2",
"g. c #5E65EB",
"h. c #6267E6",
"j. c #6A70F6",
"k. c #817FCE",
"l. c #24A8A5",
"z. c #798587",
"x. c #788794",
"c. c #7F81AA",
"v. c #7C9CB9",
"b. c #7F82B0",
"n. c #6686C7",
"m. c #7B84C9",
"M. c #6C99D7",
"N. c #7986DA",
"B. c #7B81E2",
"V. c #7AB0EE",
"C. c #878888",
"Z. c #838993",
"A. c #949698",
"S. c #8A9099",
"D. c #A6A29F",
"F. c #969AA4",
"G. c #9498BE",
"H. c #8591B0",
"J. c #B796A5",
"K. c #9AA2A5",
"L. c #8EA4B2",
"P. c #A5A5A5",
"I. c #AAAAA7",
"U. c #B8B8B7",
"Y. c #B0A9AE",
"T. c #C6939E",
"R. c #CCA8AD",
"E. c #C5C1BE",
"W. c #8384D9",
"Q. c #8D96CB",
"!. c #84A0C2",
"~. c #99B0D1",
"^. c #A2AFC2",
"/. c #A8B8C8",
"(. c #B7B8C8",
"). c #B5B6DB",
"_. c #8989E6",
"`. c #8B8EF3",
"'. c #9C9CFE",
"]. c #9393F5",
"[. c #8F97EE",
"{. c #8FB5EC",
"}. c #A8B6E7",
"|. c #A6AAFB",
" X c #B6B6F8",
".X c #B5BDEC",
"XX c #B8C6CE",
"oX c #BAC4D2",
"OX c #AECADA",
"+X c #98CBF3",
"@X c #99DAF9",
"#X c #87CCFF",
"$X c #A3C9EA",
"%X c #A8DBF5",
"&X c #AFCEF0",
"*X c #BCE8F6",
"=X c #C5C7C7",
"-X c #D7C9C7",
";X c #D1D1CE",
":X c #C5CAD4",
">X c #C8D7DB",
",X c #DCDDDC",
"<X c #DADCDA",
"1X c #E1D6D3",
"2X c #D2E2DE",
"3X c #E9E2DF",
"4X c #C5CDE4",
"5X c #CAD8E7",
"6X c #D9DFE8",
"7X c #D2D4FB",
"8X c #C3ECF5",
"9X c #CCEDF4",
"0X c #DBE6F5",
"qX c #D4F2F4",
"wX c #DDF4F6",
"eX c #C9E9F2",
"rX c #E5E5E5",
"tX c #F3F3EF",
"yX c #E8F4F6",
"uX c #F4F5F4",
"iX c #F4FDFC",
"pX c #FDFEFD",
"aX c #FCFBF8",
"sX c #EEEEF1",
/* pixels */
"                                                                                                                        P R     ",
"                                                                                                                    %.R G {     ",
"                                                                                                                W.{ { 8.{ 1.[.  ",
"                                                                                                              | { } X.X.8.1.8.  ",
"                                                                                                          (.` Q K  .{ 8.4.1.4.  ",
"                                                                                                        =.! I E !  .j.g.4.1.4.  ",
"                                                                                                      +.Q I ~ ! w.a.j.g.4.,.4.  ",
"                                                                                                  6X` E I ! ! b.}.].j.g.h.,.1.  ",
"                                                                                                G.^ P E ^ ~ H.|.]._...g.j.,.,.  ",
"                                                                                              ) ~ E ~ | ^ ).|.'._.k.k.h...,.,.  ",
"                                                                                            o.E P ! +.! .X|.'._.k.k.t.X.R ,...  ",
"                                                                                          @.E I o.0.| 4X X|.`.N.r.t.t.e.7.1.=   ",
"                                                                                        } }.W O.q.! 4X|.'.`._.r.w.*.w.t.{ - $   ",
"                                                                                       .L q.0.s.^ 6X'.'.`._.r.&.&.*.*.( O $ _   ",
"                                                                                      ;.-.G d.| 7X'.`.`.W.r.*.$.$.=.z @ + -     ",
"                                                                                    &X..2.>.O.0X].`.k.k.r.&.$.+.+.x @ + O       ",
"                                                                                    p.| `.A [.].B.B.N.w.w.$.$.+.g @ & O         ",
"                                                                          =XP.Y.  +.| s.+. X6.s.a.d.e.*.$.$.+.g @ = + j         ",
"                                                                        ,XrXpX;X:X| %.+.7Xa.<.s.s.q.w.&.$.$.: @ = # +           ",
"                                                                      rX,X,XP.rXuX2 K  Xd.u.U s.e.q.&.$.$.= + & * .             ",
"                                                                      aXtXs w s iX#.1.2.q.u.m.e.e.q.$.$.* @ & * .               ",
"                                                        uX            pXN s   w V iXD f.>.u.[.%.q.&.&.@ = = & o                 ",
"                                                      _.iX          uXpXw       d pXD :.f.u.m.e.q.&.+ - = * O F.                ",
"                                                    XXuX$XOX        uXU.        N pX, f.f.-.e.r.w.@ = = * O 4                   ",
"                                                    l uXM.L.        uXC.          D.Q.3.2.f.w.@.O = = - @ @                     ",
"                                                  Q l :X{.M.H.:XOXV.pXC.          C.pX3.f.f.W + = = & @ @                       ",
"                                                l ..x l V.H.;X>X{.@XpXC.          C iX8.f.L o : = - + O                         ",
"                                                ` U l | oXG.:X{.#XaXpXY.          A.iX>.K $ 2 9 - + .                           ",
"                                              ' ' ( x h.1.(.!.{.7X#X<X,X          Y.rXG $ 2 2 z + X                             ",
"                                              ' ( z i.i.1.0.!.N.&X#X=XaX          <X,X1 < 1 1 g X                               ",
"                                            ' ' _ 0.u.i.6.>.~.7XV.7XI.pX          uX=X< % % % ;                                 ",
"                                          z @.' U u.i.i.6.>. .V.{.pX<XpX          pXI.% 1 1 $                                   ",
"                                          z l U e.i.u.5.6.1.>.4XpXpX] pX          pXm                                           ",
"                                        M.n.(.Q e.i.u.5.6.y.5.1.pX_ H aX        uXuXU.                                          ",
"                                      n.M.9.6X! t.i.u.1.4.y.y.5.Y ( H ;XuX      pXP.                                            ",
"                                      M.M.9.{.| *.i.u.<.h.<.y.{ [ S K.n pX=XrXrXpXn                                             ",
"                                    ..M.M.9.+X~.=.u.5.5.a.y.{ T { F A a rX6XI.tX;Xe                                             ",
"                                  R.n M.M.OX+Xs.*.7.5.).0.X.X.Y J G A I s aXpXrXs                                               ",
"                                  R.B n.O.$X+Xp.m.y.5.aXm _ S Z J l.G P e a n s e                                               ",
"                                s n B n.%.Q.+Xp.<.<.5.k 4 m P.S F 3 J     # e #                                                 ",
"                              G.V C B 0.q.$X+X0.i.<.| t j B A.: J k H                                                           ",
"                              %Xb.V ..m.+X+X$X7.y.S #.A.j a ] k q Y                                                             ",
"                            ^.&X4XT.T.%X@X@X%XO.[ S F.T Z.g : k k >                                                             ",
"                            XX/.(.T.T.-X%X%XL.G [ S ^ { : : k k k g                                                             ",
"                          ^.2XoXoXJ.R.-X%Xv.7 G Z S T [ : g k _ P                                                               ",
"                        eX/.2X/.oXY.-X1X] 7 7 G W Q T A 3 g z K.`                                                               ",
"                        *X/.2X>X/.>XU.J.z.0 7 G R ` G A A g h F.P.                                                              ",
"                      *X*X(.2X^.oX5XP.A.b 0 7 H { ~ { S A g 9 H I                                                               ",
"                    qX8X*X>X>XK.XXS.F.c 7 0 7 H { W { A A ; 9 8 /                                                               ",
"                    9X8X*XeXXXwXL.x.S.Z.0 7 7 I Y W { A S ; 6 9 /                                                               ",
"                  9X8X8X*X*XyXh z.F.L.S.5 5 5 #.P G [ ' N d v v F.                                                              ",
"                yX9X9X8X8XqXh 7 z.K.S.x.5 r 5 C.G A A g 6 n y N                                                                 ",
"                qX9X9X5XXXp i p u K.S.A.7 5 r l A Z H.: 8 ]                                                                     ",
"              qXqXeXpX=Xs w t r p p 7 A.7 7 5 0 S Z.z.                                                                          ",
"              qX0XaXU.a a w w r 4 i 7 h 7 7 7 4                                                                                 ",
"            wX6XaXI.w w w w w r r 4 7 7 5 x.                                                                                    ",
"          wX0XaXA.w w w w w w w e e p                                                                                           ",
"          yXiXM y i r r w w w e A.                                                                                              ",
"        wXyXz.b i i i i r n                                                                                                     ",
"      yXiXz.i f f p f x.                                                                                                        ",
"      iXM f y y N                                                                                                               ",
"    iXM i v                                                                                                                     ",
"  pXf A.                                                                                                                        ",
"                                                                                                                                "
};
