/* XPM */
static char *af0cfaaddd7b458f884afa12f0db3e8clGo8cQVKoS1Ve4k1[] = {
/* columns rows colors chars-per-pixel */
"64 64 21 1 ",
"  c None",
". c black",
"X c #FFFFFF",
"o c #FFFFFF",
"O c #FFFFFF",
"+ c #FFFFFF",
"@ c #FFFFFF",
"# c #FFFFFF",
"$ c #FFFFFF",
"% c #FFFFFF",
"& c #FFFFFF",
"* c #FFFFFF",
"= c #FFFFFF",
"- c #FFFFFF",
"; c #FF0000",
": c #FF0000",
"> c #FFFFFF",
", c #FF0000",
"< c #FFFFFF",
"1 c #FFFFFF",
"2 c red",
/* pixels */
"                         ......                                 ",
"              ............++++...............                   ",
"            ...OOOOOOO..+OOOOO++++++++++++++....                ",
"            .OOO+OOOO.+OOOOOOOOOOOOOOOOOOOOO+++..               ",
"           ..O+++OOO..OOOOOOOOO++++++OOOOOOOOOO+..              ",
"           .O++OOOOO.+OOOOOOOOOOOOOO++++OOOOOOOOO.              ",
"          ..O+OOOOO..OOOOOO++++OOOOOOOO++++OOOOO+..             ",
"          .OO+OOOOO.+OOOOOOOOO++OOOOOOOOOO++OOOOO+.             ",
"          .OO+OOOOO.+OOOOOOOOOOOOOO+OOOOOOO++OOOO+..            ",
"          ..O+OO......OOOOOOOOOOOOO++OOOOOOO+OOOOO+.            ",
"           .OOOO.O.....OOO++OOOOOOOO+++OOOOOO+OOOO+.            ",
"           .OOO..OO.OO.OOOO++++++OOOOOOO++OOOO++OO+.            ",
"           .O+O......O.OOOOOOOOO++OOOOOOO++OOOO+OO+.            ",
"           .OOO.#---.O.OOOOOOOOOO++OOOOOOOOOOOOOOO+.            ",
"           .OOO..---...OOOOOOOOOOO+++++OO+OOOOOOOO+.            ",
"           ......<<<<.+OOOOOOOOOOOOOOOOOO++OOOOOOO+.            ",
"              ###<<<<..++OOOOOOOOOOOOOOOOOO+OOOOOO+.            ",
"              ###<<<<<...++++++++++++++OOOO++OOOO+..            ",
"              ###<<<<<<<...............+++OO++OO+..             ",
"              ...<<<<<<<<<<<<<<<<<<<<<.....OOOOO..              ",
"              ...<<<<<<<<<<<<<<<<<<<<<<<<<........              ",
"              ...<<<<<<<<<<<<<<<<<<<<<<<<<<<----..              ",
"              ...<<<<<<<<<<<<<<<<<<<<<<<<<<<----..              ",
"              ...<<<........<<<<<<<<<<<<----****..              ",
"              ...<<<........<<<<<<<<<<<<----****..              ",
"              ...<<<........<<<<<<<<<<<<----****..              ",
"              ...<<<....,,,,<<<<<<<<----<<<<****..              ",
"              ...<<<....,,,,<<<<<<<<----<<<<****..              ",
"              ...<<<....,,,,<<<<<<<<----<<<<****..              ",
"              ...<<<....,,,,<<<<<<<<----<<<<****..              ",
"          ....===<<<::::2222<<<<<<<<****----****..              ",
"          ....===<<<::::2222<<<<<<<<****----****..              ",
"          ....===<<<::::2222<<<<<<<<****----****..              ",
"          ....===<<<::::2222<<<<<<<<****----****..              ",
"          ....===<<<<<<<<<<<<<<<<<<<----****....                ",
"          ....===<<<<<<<<<<<<<<<<<<<----****....                ",
"          ....===<<<<<<<<<<<<<<<<<<<----****....                ",
"              ...===----<<<<<<<<----****....                    ",
"              ...===----<<<<<<<<----****....                    ",
"              ...===----<<<<<<<<----****....                    ",
"              ...===----<<<<<<<<----****....                    ",
"              ..........########%%%%............                ",
"              ..........########%%%%............                ",
"              ..........########%%%%............                ",
"              ..................................                ",
"          ....<<<<<. 1..XXXXXXXXXXXXXXXX........                ",
"          ....<<<<<.11.X$@@$@@@@@@@$@@@@........                ",
"          ....<<<<<....X@@@@@@@@$@@@@@$@........                ",
"          ....<<<<<..XX@@@@@@$@@@@@$@@@@........                ",
"          ....<<<<<..X@@$@@@@@@@@@@@@@@@........                ",
"          ....<<<<<..X$@@@@$@@@@@$@@@@@$........                ",
"          ....<<<<<.............................                ",
"              ......&&.++++++++++++++++++++......               ",
"              ...................................               ",
"              ......>>>>>>>>>>>>>>>>>>>>>>>>.....               ",
"            ..o+.>>>>>>>........>>>;>>>>>>>>>;.o.               ",
"            ..o+.>>>;>>>........>>>;;;;>>>>>>;.o.               ",
"            ..oo.;>>;;>>........>>>>>>>>>>>>;..o.               ",
"            ..oo+.;>>>>>........;;;;>>>>>>>;..+o.               ",
"              .o+..;;;;;....    ....;;;;;;;..+o.                ",
"              .o++..........    ............++o.                ",
"              .oo+++++++....    ....++++++++++o.                ",
"              ..oooooooo....    ....oooooooooo..                ",
"              ..............    ................                "
};
