/* XPM */
static char *_9cf1f0af44a45639bd5a94209e7dc53Yky6IlOmp6I6i9Js[] = {
/* columns rows colors chars-per-pixel */
"64 64 21 1 ",
"  c None",
". c black",
"X c #FFFFFF",
"o c #FFFFFF",
"O c #FFFFFF",
"+ c #FFFFFF",
"@ c #FFFFFF",
"# c #FFFFFF",
"$ c #FFFFFF",
"% c #FFFFFF",
"& c #FFFFFF",
"* c #FFFFFF",
"= c #FFFFFF",
"- c #FFFFFF",
"; c #FF0000",
": c #FF0000",
"> c #FFFFFF",
", c #FF0000",
"< c #FFFFFF",
"1 c #FFFFFF",
"2 c red",
/* pixels */
"                                                                ",
"                                                                ",
"                           ............                         ",
"                          ..++++++++++....                      ",
"                        ...+OOOOOOOOOO+++....                   ",
"                      ...++OOOOOOOOOOOOOO+++...                 ",
"                    ...++OOOOOOOOOOOOOOOOOOO++...               ",
"                   ..++OOOOOOOOOOOOOOOOOOOOOOOO+.               ",
"                  ..+OOOOOOOOOOOOOOOOOOOOOOOOOO+.               ",
"                 ..+OOOO+++OOOOO++OOOOOOOOOOOOO+.               ",
"                ..+OOO+++OOOOO+++OOOOOOOOOOOOOO+.               ",
"               ..+OOO++OOOOOO++OOOOOOOOO++OOOOO+.               ",
"               .+OOO++OOOOO+++OOOOOOOOO++OOOOOO+.               ",
"              ..+OO++OOOO+++OOOOOOOOO+++OOOOOOO+.               ",
"              .+OOO+OOO+++OOOOOOOOOO++OOOOOOOO++.               ",
"             ..+OOO+O+++OOOOOOOOOOO++OOOOOOOOO+..               ",
"             .+OOOOO++OOOOOOOOOOO+++OOOOOOOOOO+.                ",
"            ..+OOOO++OOOOOOOOOOO++OOOOOOOOOOOO+.                ",
"            .+OOOOOOOOOOOOOOOO+++OOOOOOOOOOOOO+.                ",
"            .+OOOOOOOOOOOOO++++OOOOOOOOOOOO+++..                ",
"            .+OOOOOOOOOOOOOOOOOOOOOOOOO++++....                 ",
"            .++++++++OOOOOOOOOOOOO+++++.......                  ",
"            .........+++++++++++++......<<<...                  ",
"               ....-...............<<<<<<<<...                  ",
"               ....---<<<<<<<<<<<<<<<<<<<<<...                  ",
"               ....***---<<<<<<<<.......<<<...                  ",
"               ....***---<<<<<<<<.......<<<...                  ",
"               ....***---<<<<<<<<.......<<<...                  ",
"               ....***<<<---<<<<<,,,....<<<...                  ",
"               ....***<<<---<<<<<,,,....<<<...                  ",
"               ....***<<<---<<<<<,,,....<<<...                  ",
"               ....***---***<<<<<222::::<<<===...               ",
"               ....***---***<<<<<222::::<<<===...               ",
"               ....***---***<<<<<222::::<<<===...               ",
"               ....***---***<<<<<222::::<<<===...               ",
"                   ...***---<<<<<<<<<<<<<<<===...               ",
"                   ...***---<<<<<<<<<<<<<<<===...               ",
"                   ...***---<<<<<<<<<<<<<<<===...               ",
"                      ...***---<<<<<----===...                  ",
"                      ...***---<<<<<----===...                  ",
"                      ...***---<<<<<----===...                  ",
"                      ...***---<<<<<----===...                  ",
"                   .........%%%#####..........                  ",
"                   .........%%%#####..........                  ",
"                   ...........................                  ",
"                   ......XXXXXXXXXXXX.11.<<<<<...               ",
"                   ......@@@@@@$@@@@X..1.<<<<<...               ",
"                   ......$@@@$@@@@$@@X.1.<<<<<...               ",
"                   ......@@@@@@@$@@@@X...<<<<<...               ",
"                   ......@@@@@@@@@@$@@X..<<<<<...               ",
"                   ......@$@@@$@$@@@@@X..<<<<<...               ",
"                   ......................<<<<<...               ",
"                 .....++++++++++++++.&&&......                  ",
"                 .............................                  ",
"                 .....>>>>>>>>>;;;;;>>>>......                  ",
"                 ....;>>>;>>>>;.....;>;>>>>>;;..                ",
"                 ..+..;>>>>>;>;.....;>>;>>;;....                ",
"                 ..o+..;>>>>>>;.....;>>>;;...o..                ",
"                 ..oo+..;;;;;;;.....;;;;...++o..                ",
"                   ...+........  .......+++...                  ",
"                   ...o+++++...  ...++++++o...                  ",
"                   ...oooooo...  ...ooooooo...                  ",
"                   ............   ............                  ",
"                                                                "
};
