/* XPM */
static char *_268ddffd53249cfe0b54362dc36c664BcbyY5p1UZRc5WZ7[] = {
/* columns rows colors chars-per-pixel */
"64 64 14 1 ",
"  c None",
". c black",
"X c #FF0000",
"o c #FFFFFF",
"O c #FFFFFF",
"+ c #FF0000",
"@ c #FFFFFF",
"# c #FFFFFF",
"$ c #3A514A",
"% c #FFFFFF",
"& c #FFFFFF",
"* c #FFFFFF",
"= c #FFFFFF",
"- c #000000",
/* pixels */
"                                                                ",
"                                                                ",
"                            .......                             ",
"                      .......+++++......                        ",
"                    ...++++++OOOO++++++...                      ",
"                  ...++OOOOOOOOOOOOOOOO++..                     ",
"                 ..++OOOOOOOOOOOOOOOOOOOO+...                   ",
"                ..+OOOOOOOOOOOOOOOOOOOOOOO++..                  ",
"               ..+OOOOOOOOOOOOOOOOOOOOOOOOOO+..                 ",
"               .+OOOOOOOOOOOOOOOOOOOOOOOOOOOO+.                 ",
"              ..+OOOOOOOOOOOOOOOOOOOOO+OOOOOO+.                 ",
"              ..+OOOOOOOOOOOO+OOOOOOOO+OOOOOOO..                ",
"              ..+OOOO+OOOOOOO++OOOOOOO+OOOOOOO+.                ",
"             .++OOOOO+OOOOOOOO+OOOOOOO++OOOOOO+.                ",
"             .+OOOOOO+OOOOOOOO+OOOOOOOO+OOOOOO+.                ",
"             .+OOOOOO+OOOOOOOO+OOOOOOOO++OOOOO+.                ",
"             .+OOOOOOO+OOOOOOO+OOOOOOOOO+OOOOO+.                ",
"             .+OOOOOOO+OOOOOOO+OOOOOOOOO+OOOOO+..               ",
"             .+OOOOOOO+OOOOOOO++OOOOOOOO+OOOOOO+.               ",
"             .+OOOOOOO++OOOOOOO+OOOOOOOO+OOOOOO+.               ",
"             .+OOOOOOOO+OOOOOOO+OOOOOOOO+OOOOOO+.               ",
"             .+OOOOOOOO+OOOOOOO+OOOOOOOO+OOOOOO+.               ",
"             .+OOOOOOOO+OOOOOOO+OOOOOOOO+OOOOOO+.               ",
"             ..+OOOOOOO+OOOOOOO+OOOOOOOO+OOOOO+..#              ",
"             ..+OOOOOOO+OOOOOOO+OOOOOOOO+OOOOO+.##              ",
"             #..+OOOOOO++OOOOOO+OOOOOOOO+OOOOO+.##              ",
"             ....+OOOOOO+OOOOOO+OOOOOOOOOOOOOO+...              ",
"             .....++OOOO+OOOOOOOOOOOOOOOOOOOOO+...              ",
"             ...#...+OOOOOOOOOOOOOOOOOOOOOOOO+....              ",
"             ...###.+OOOOOOOOOOOOOOOOOOOOOOO+.....              ",
"             ...###..+OOOOOOOOOOOOOOOOOOOOO+..#...              ",
"             ...###&..++OOOOOOOOOOOOOOOOOO++.##...              ",
"             ...###&&...++++++OOOOOOOO++++...##...              ",
"                ...%%%&.......++++++++.....%...                 ",
"                ...%%%&&&&&&&..........&&%%%...                 ",
"                ...%%%&&&&&&&&&&&&&&&&&&&%%%...                 ",
"                ...%%%&&&&&&&&&&&&&&&&&&&%%%...                 ",
"                   ...%%%&&&&&&&&&&&&&%%%...                    ",
"                   ...%%%&&&&&&&&&&&&&%%%...                    ",
"                   ...%%%&&&&&&&&&&&&&%%%...                    ",
"                ######...................######                 ",
"                ######.XXXXXXXXXXXXXXXXX.######                 ",
"                ######.X@@@@@@@@@@@@@@@X.######                 ",
"                ######.X@@@@@$@@@@@@$@@X.######                 ",
"             ###&&&%%%.X@@$@@@@@$@@@@@@X.&&&&&&###              ",
"             ###&&&%%%.X@@@@@@@@@@@@@@@X.&&&&&&###              ",
"             ###&&&%%%.X@@@@@$@@@@@@$@@X.&&&&&&###              ",
"          ###---&&&###.X@@@@@@@@@$@@@@@X.###&&&---###           ",
"          ###---&&&###.X@$@@$@@@@@@@$@@X.###&&&---###           ",
"          ###---&&&###.X@@@@@@@@@@@@@@@X.###&&&---###           ",
"          ...------###...................###------...           ",
"          ...------###.+++++++++++++++++.###------...           ",
"          ...------###...................###------...           ",
"          ...------###.******===========..##------...           ",
"             ..........*======*....*====*.........              ",
"             .......***=======*....*=====**.......              ",
"             ......*========***....*======**......              ",
"                ...*********.......*********...                 ",
"                ...............................                 ",
"                ...+++++++++.......+++++++++...                 ",
"                ...o+++++++o.......o+++++++o...                 ",
"                   .ooooooo.       .ooooooo.                    ",
"                   .........       .........                    ",
"                   .........       .........                    "
};
