/* XPM */
static char *a8054876806a4f99e04899be73e820a4oLozc4VtxIoETxfv[] = {
/* columns rows colors chars-per-pixel */
"64 64 20 1 ",
"  c None",
". c black",
"X c #FFFFFF",
"o c #FFFFFF",
"O c #FFFFFF",
"+ c #FFFFFF",
"@ c #FFFFFF",
"# c #FFFFFF",
"$ c #000000",
"% c #FFFFFF",
"& c #FFFFFF",
"* c #FFFFFF",
"= c #FFFFFF",
"- c #FF0000",
"; c #FF0000",
": c #FFFFFF",
"> c #FF0000",
", c #FFFFFF",
"< c #000000",
"1 c red",
/* pixels */
"                                      ....                      ",
"                       ................@@....                   ",
"                   .....@@@@@@@@@@@@@@@+@@@@..                  ",
"                  ....@+++++++++++++++++++++@@.                 ",
"                 ..@@..@+@@@+++++@@+++++++++++...               ",
"                ..@++@..+++@@+++++++++++++++++@@..              ",
"               ..@@+++@.+++++++@@++++++@+++++@++@..             ",
"              ..@+@+++@.@+++++++++++++++@@+++@@++@..            ",
"             ..@++++@++..@@@+++++@+++++++@++++@++++..           ",
"            .@@++++@@++@....@++++@+++++++@@++++++++@..          ",
"            .@+++@+++++@.,;..+++++@+++++++@+++++++++@..         ",
"            .@++@@+++++@.,;,.@++++@@++++++@@+++++++++@..        ",
"            .@+@@++@+++@.,;,,.@++++@++++++++++++++++++@.        ",
"            .++@+++@+++@.,;,,.@+@++@@+++@@++++++@@++@++@.       ",
"           ..+@@+++@+++@.,;,,.@++@@+@@+++@@@@++++@++@@++.       ",
"           .@+@++++@++@@.,;,,.@+++@++++++++++++++@@++@++.       ",
"          ..@++++@+@++@@.,;,,.@+++@+++++++++++++++@+++++.       ",
"          .@+++@@++@++@@.,,,,..@@@+++++++++++++++++@@+++.       ",
"          .@++@@+++@+++@.,,,,,....@@@@@@@@@@@@@@@++++++@.       ",
"          .@@+++++++++@.,,,,,,,,,................@++++@.        ",
"          ...@@@@@@@@@..,,,,,,,,,,,...............@@@...        ",
"            ...........,,,,,,,,,,,,,,,,,,,,,,,@@@.....          ",
"          $$$$$$$@@==........,,,,,,,,........=@@@$$$$$$$        ",
"          $$$$$$$@@==........,,,,,,,,........=@@@$$$$$$$        ",
"          $$$$$$$@@==........,,,,,,,,........=@@@$$$$$$$        ",
"          ...****@@==>>>>....,,,,,,,,...>>>>>=@@@***....        ",
"          ...****@@==>>>>....,,,,,,,,...>>>>>=@@@***....        ",
"          ...****@@==>>>>....,,,,,,,,...>>>>>=@@@***....        ",
"          ...****@@==>>>>....,,,,,,,,...>>>>>=@@@***....        ",
"          ...*****===1111;;;;,,,,,,,,;;;11111===****....        ",
"          ...*****===1111;;;;,,,,,,,,;;;11111===****....        ",
"          ...*****===1111;;;;,,,,,,,,;;;11111===****....        ",
"             .....***,,,,,,,,,,,,,,,,,,,,,,,,***....            ",
"             .....***,,,,,;;;,,,,,,,;;;,,,,,,***....            ",
"             .....***,,,,,,;;;,,,,,;;;,,,,,,,***....            ",
"             .....***,,,,,,,;;;;;;;;;,,,,,,,,***....            ",
"                  ...****====,,,,,,,,===*****...                ",
"                  ...****====,,,,,,,,===*****...                ",
"                  ...****====,,,,,,,,===*****...                ",
"                  ...****====,,,,,,,,===*****...                ",
"             $$$$$$..XXXXXXXXXXXXXXXXXXXXXXXX.$$$$$$            ",
"             $$$$$..oooooooo..<<<<<.oooooooooo..$$$$            ",
"             $$$$..o#######o..<<<<<.o#########o..$$$            ",
"          $$$====Xo####%#%##o..<<<.o###%###%###oX===$$$$        ",
"          $$$====Xo%#########o.....######%##%##oX===$$$$        ",
"          $$$====Xo##%########o..o###%#########oX===$$$$        ",
"          $$$====Xo#########%#o..o#############oX===$$$$        ",
"      $$$$,,,,,,,,.###########o..o#########%###o.,,,,,,,$$      ",
"      $$$$,,,,,,,,.#%#######%#o..o#%###%%#####%o.,,,,,,,$$      ",
"      ....,,,,,,,,.######%####o..o##########%##o.,,,,,,,..      ",
"      ....,,,,,,,,....XXXXXXXXXXXXXXXXXXXXXXX....,,,,,,,..      ",
"      ....,,,,,,,,.@@@@@@@@@@X&&&&X@@@@@@@@@@@@@.,,,,,,,..      ",
"      ....,,,,,,,,...XXXXXXXXXXXXXXXXXXXXXXXX....,,,,,,,..      ",
"          ........-:::::::::::::::::------------........        ",
"          ........-::::::::::--::::::::::::::::-........        ",
"          ........-:--:::::::.---::::::::::::::-........        ",
"             .....-::---::::-....---:::::--::::-....            ",
"             .....--::::::::-......---::--:::::-....            ",
"             .....-:::::::::-........-:::::::::-....            ",
"             .....-----------........-::::------....            ",
"                  O@@@@OOOOOO        O@@@@OOOOOO                ",
"                  O@@@@@@@@@O        O@@@@@@@@@O                ",
"                  O@@@@@@@@@O        O@@@@@@@@@O                ",
"                  ...........        ...........                "
};
